<mxfile host="65bd71144e">
    <diagram id="CID-YGzchm7Eg0DCsum1" name="Page-1">
        <mxGraphModel dx="1981" dy="790" grid="1" gridSize="10" guides="1" tooltips="1" connect="1" arrows="1" fold="1" page="1" pageScale="1" pageWidth="850" pageHeight="1100" math="0" shadow="0">
            <root>
                <mxCell id="0"/>
                <mxCell id="1" parent="0"/>
                <mxCell id="16" style="edgeStyle=none;html=1;fontSize=17;entryX=0.562;entryY=-0.033;entryDx=0;entryDy=0;entryPerimeter=0;fillColor=#e3c800;strokeColor=#B09500;" edge="1" parent="1" source="2" target="3">
                    <mxGeometry relative="1" as="geometry">
                        <mxPoint x="700" y="40" as="targetPoint"/>
                        <Array as="points">
                            <mxPoint x="160" y="40"/>
                            <mxPoint x="693" y="40"/>
                        </Array>
                    </mxGeometry>
                </mxCell>
                <mxCell id="20" value="Reducer will then decide how to handle state and&amp;nbsp;&lt;br&gt;update the UI" style="edgeLabel;html=1;align=center;verticalAlign=middle;resizable=0;points=[];fontSize=17;" vertex="1" connectable="0" parent="16">
                    <mxGeometry x="-0.8587" relative="1" as="geometry">
                        <mxPoint as="offset"/>
                    </mxGeometry>
                </mxCell>
                <mxCell id="2" value="&lt;b&gt;&lt;font style=&quot;font-size: 17px&quot;&gt;PROFILE&lt;br&gt;REDUCER&lt;br&gt;&lt;/font&gt;&lt;/b&gt;" style="whiteSpace=wrap;html=1;fillColor=#647687;fontColor=#ffffff;strokeColor=#314354;" vertex="1" parent="1">
                    <mxGeometry x="40" y="200" width="240" height="120" as="geometry"/>
                </mxCell>
                <mxCell id="12" style="edgeStyle=none;html=1;entryX=0.677;entryY=0.008;entryDx=0;entryDy=0;entryPerimeter=0;fontSize=17;fillColor=#e3c800;strokeColor=#B09500;" edge="1" parent="1" source="3" target="5">
                    <mxGeometry relative="1" as="geometry"/>
                </mxCell>
                <mxCell id="13" style="edgeStyle=none;html=1;fontSize=17;fillColor=#e3c800;strokeColor=#B09500;" edge="1" parent="1" source="3" target="6">
                    <mxGeometry relative="1" as="geometry"/>
                </mxCell>
                <mxCell id="14" style="edgeStyle=none;html=1;entryX=0.5;entryY=0;entryDx=0;entryDy=0;fontSize=17;fillColor=#e3c800;strokeColor=#B09500;" edge="1" parent="1" source="3" target="7">
                    <mxGeometry relative="1" as="geometry"/>
                </mxCell>
                <mxCell id="3" value="PROFILE" style="ellipse;whiteSpace=wrap;html=1;fontSize=17;fillColor=#60a917;fontColor=#ffffff;strokeColor=#2D7600;" vertex="1" parent="1">
                    <mxGeometry x="620" y="200" width="130" height="120" as="geometry"/>
                </mxCell>
                <mxCell id="15" style="edgeStyle=none;html=1;entryX=0.5;entryY=1;entryDx=0;entryDy=0;fontSize=17;fillColor=#e3c800;strokeColor=#B09500;" edge="1" parent="1" source="4" target="2">
                    <mxGeometry relative="1" as="geometry"/>
                </mxCell>
                <mxCell id="4" value="&lt;b&gt;&lt;font style=&quot;font-size: 17px&quot;&gt;PROFILE&lt;br&gt;ACTION&lt;br&gt;&lt;/font&gt;&lt;/b&gt;" style="whiteSpace=wrap;html=1;fillColor=#1ba1e2;fontColor=#ffffff;strokeColor=#006EAF;" vertex="1" parent="1">
                    <mxGeometry x="40" y="480" width="240" height="120" as="geometry"/>
                </mxCell>
                <mxCell id="11" style="edgeStyle=none;html=1;fontSize=17;fillColor=#e3c800;strokeColor=#B09500;" edge="1" parent="1" source="5" target="4">
                    <mxGeometry relative="1" as="geometry"/>
                </mxCell>
                <mxCell id="5" value="PROFILE&lt;br&gt;ABOUT" style="ellipse;whiteSpace=wrap;html=1;fontSize=17;fillColor=#6d8764;fontColor=#ffffff;strokeColor=#3A5431;" vertex="1" parent="1">
                    <mxGeometry x="420" y="480" width="130" height="120" as="geometry"/>
                </mxCell>
                <mxCell id="6" value="PROFILE&lt;br&gt;EXPERIENCES" style="ellipse;whiteSpace=wrap;html=1;fontSize=17;fillColor=#6d8764;fontColor=#ffffff;strokeColor=#3A5431;" vertex="1" parent="1">
                    <mxGeometry x="600" y="480" width="130" height="120" as="geometry"/>
                </mxCell>
                <mxCell id="7" value="PROFILE&lt;br&gt;EDUCATION" style="ellipse;whiteSpace=wrap;html=1;fontSize=17;fillColor=#6d8764;fontColor=#ffffff;strokeColor=#3A5431;" vertex="1" parent="1">
                    <mxGeometry x="780" y="480" width="130" height="120" as="geometry"/>
                </mxCell>
                <mxCell id="17" value="STATE" style="text;html=1;align=center;verticalAlign=middle;resizable=0;points=[];autosize=1;strokeColor=none;fillColor=none;fontSize=17;" vertex="1" parent="1">
                    <mxGeometry x="390" y="10" width="70" height="30" as="geometry"/>
                </mxCell>
                <mxCell id="18" value="Data got from the server will be stored in a store" style="text;html=1;align=center;verticalAlign=middle;resizable=0;points=[];autosize=1;strokeColor=none;fillColor=none;fontSize=17;" vertex="1" parent="1">
                    <mxGeometry x="495" y="160" width="380" height="30" as="geometry"/>
                </mxCell>
                <mxCell id="19" value="This is what will take in an action" style="text;html=1;align=center;verticalAlign=middle;resizable=0;points=[];autosize=1;strokeColor=none;fillColor=none;fontSize=17;" vertex="1" parent="1">
                    <mxGeometry x="40" y="330" width="260" height="30" as="geometry"/>
                </mxCell>
                <mxCell id="21" value="An action will be dispatched to the reducer" style="text;html=1;align=center;verticalAlign=middle;resizable=0;points=[];autosize=1;strokeColor=none;fillColor=none;fontSize=17;" vertex="1" parent="1">
                    <mxGeometry x="-25" y="435" width="330" height="30" as="geometry"/>
                </mxCell>
            </root>
        </mxGraphModel>
    </diagram>
</mxfile>